<?xml version="1.0" standalone="no"?>
<!DOCTYPE svg PUBLIC "-//W3C//DTD SVG 20010904//EN"
 "http://www.w3.org/TR/2001/REC-SVG-20010904/DTD/svg10.dtd">
<svg version="1.0" xmlns="http://www.w3.org/2000/svg"
 width="200.000000pt" height="200.000000pt" viewBox="0 0 200.000000 200.000000"
 preserveAspectRatio="xMidYMid meet">
<metadata>
Created by potrace 1.11, written by Peter Selinger 2001-2013
</metadata>
<g transform="translate(0.000000,200.000000) scale(0.100000,-0.100000)"
fill="#000000" stroke="none">
<path d="M367 1679 c-103 -164 -185 -304 -183 -311 3 -7 7 -31 10 -53 3 -22 9
-69 15 -105 6 -36 13 -83 16 -105 3 -22 14 -94 25 -160 10 -66 22 -140 25
-165 3 -25 13 -85 21 -135 9 -49 17 -103 19 -120 6 -63 18 -105 29 -106 6 -1
37 -1 69 -1 50 0 58 -2 53 -16 -6 -16 -5 -16 7 -1 9 12 27 16 70 15 52 -1 62
4 58 27 0 4 4 7 10 7 6 0 8 -8 4 -19 -4 -15 -1 -19 12 -17 21 3 26 51 6 51
-16 0 -18 5 -9 33 4 12 12 20 17 17 5 -4 9 -2 9 4 0 5 -5 11 -12 13 -7 3 -8 9
-2 19 5 8 9 22 10 32 3 35 4 38 13 33 5 -4 8 -17 6 -31 -1 -14 2 -28 8 -32 6
-4 7 -1 2 7 -5 9 -4 11 4 6 14 -9 11 16 -4 26 -6 5 -4 8 4 8 9 0 7 6 -8 19
-12 11 -18 22 -12 25 5 4 14 -2 20 -11 6 -11 11 -13 11 -5 0 7 4 11 8 8 10 -6
9 -36 -1 -53 -4 -6 -1 -14 5 -16 10 -4 10 -6 1 -6 -7 -1 -13 -6 -13 -12 0 -5
4 -8 9 -5 4 3 7 -5 7 -17 -1 -12 2 -28 7 -35 7 -9 6 -11 -7 -6 -11 4 -16 1
-16 -10 0 -9 -5 -16 -10 -16 -7 0 -7 6 0 19 12 24 13 31 2 31 -5 0 -14 -11
-20 -24 -9 -20 -7 -25 11 -35 14 -7 15 -10 4 -6 -14 4 -17 1 -12 -14 8 -25
-22 -51 -36 -30 -5 9 -9 10 -9 2 0 -6 5 -15 10 -18 13 -8 63 23 55 34 -3 5 2
11 10 15 9 3 12 12 8 23 -3 10 -3 15 1 12 11 -10 16 -50 5 -44 -13 9 -5 -33 9
-47 10 -10 12 -7 10 12 -2 20 2 25 20 26 13 1 26 -5 29 -12 3 -8 9 -11 14 -8
5 3 7 9 5 13 -3 4 8 7 24 7 21 0 27 -3 22 -15 -5 -14 -3 -14 14 0 19 17 57 22
48 7 -8 -13 10 -10 25 4 11 10 13 10 7 1 -4 -7 -2 -13 3 -13 6 0 11 4 11 8 0
5 7 9 16 9 14 0 14 -2 -2 -14 -14 -10 -14 -13 -3 -13 8 0 20 5 27 12 13 13 74
19 66 6 -3 -5 -9 -6 -14 -3 -5 3 -11 1 -15 -5 -9 -14 28 -13 43 2 6 6 25 12
41 13 25 1 28 -1 21 -15 -9 -18 -4 -30 12 -30 5 0 7 4 4 8 -10 16 13 36 42 37
22 1 29 -2 25 -13 -4 -9 -8 -10 -13 -3 -4 7 -12 2 -20 -13 -7 -14 -17 -23 -22
-20 -4 3 -8 0 -8 -7 0 -8 -4 -8 -15 1 -8 7 -15 10 -15 6 0 -4 -14 1 -31 10
-24 12 -30 12 -26 2 2 -7 9 -12 15 -11 5 1 12 -3 15 -11 3 -7 -1 -13 -9 -13
-8 0 -14 5 -14 10 0 6 -3 8 -6 4 -4 -3 -19 0 -35 8 -28 15 -64 11 -53 -7 3 -5
11 -5 19 2 9 8 14 7 18 -4 4 -10 1 -13 -9 -9 -8 3 -14 -1 -14 -8 0 -11 -2 -11
-9 0 -11 17 -39 23 -47 10 -3 -5 -11 -6 -17 -2 -15 9 -35 14 -64 16 -12 0 -19
5 -16 11 4 5 1 6 -8 0 -25 -15 -42 -14 -28 2 6 7 15 11 20 8 5 -3 9 2 9 10 0
9 -4 16 -9 16 -13 0 -41 -41 -36 -51 3 -4 -2 -10 -10 -13 -13 -5 -14 -2 -4 15
9 18 8 19 -8 12 -10 -5 -25 -9 -33 -8 -8 1 -21 -4 -29 -9 -11 -8 -13 -8 -7 1
5 9 2 11 -11 7 -14 -4 -15 -3 -4 4 9 7 10 12 2 16 -6 4 -11 2 -11 -4 0 -6 -4
-9 -9 -5 -5 3 -17 -2 -25 -11 -9 -8 -16 -12 -17 -7 -3 37 -18 69 -20 45 -1 -7
-2 -17 -3 -24 0 -6 -7 -13 -14 -16 -14 -4 -12 19 3 30 5 4 6 11 1 15 -5 4 -11
2 -13 -4 -3 -7 -9 -13 -14 -13 -6 0 -7 5 -4 10 3 6 1 10 -5 10 -7 0 -10 -6 -7
-14 3 -8 -1 -17 -9 -20 -12 -5 -14 -1 -9 15 5 16 3 20 -6 16 -8 -2 -12 -11
-10 -18 2 -8 3 -22 3 -33 -1 -17 0 -17 11 -2 8 11 19 15 30 10 22 -8 12 -25
-11 -17 -13 5 -14 3 -5 -7 7 -7 16 -9 25 -4 7 5 30 10 51 10 30 2 35 -1 27
-12 -6 -7 -19 -10 -28 -7 -10 3 -7 -2 6 -12 14 -10 20 -21 15 -29 -4 -7 0 -3
10 8 10 10 16 25 13 33 -7 16 6 17 22 1 9 -9 7 -14 -5 -23 -14 -10 -13 -12 8
-9 13 1 26 3 29 4 3 1 12 3 20 4 8 0 15 11 15 23 0 11 4 25 9 30 5 4 6 3 2 -4
-4 -7 2 -17 14 -23 17 -9 19 -14 9 -26 -8 -10 -8 -14 0 -14 6 0 11 4 11 9 0
16 38 19 59 4 12 -8 21 -10 21 -4 0 6 -4 11 -8 11 -4 0 -8 8 -9 18 -1 14 6 18
28 18 20 0 28 -4 25 -12 -9 -24 15 -26 38 -5 21 20 24 20 30 6 8 -23 8 -25 -7
-19 -7 2 -22 -6 -33 -18 -11 -13 -12 -18 -3 -10 9 6 20 8 24 4 5 -4 5 -1 0 7
-5 9 -3 12 6 9 8 -3 13 -11 11 -17 -1 -7 8 -5 23 5 14 9 25 21 25 26 0 5 4 7
10 3 5 -3 7 -13 4 -23 -5 -14 -4 -14 4 -2 8 10 8 18 0 27 -6 8 -8 16 -4 20 12
12 35 -31 24 -44 -5 -7 -8 -18 -5 -25 3 -8 6 -5 6 6 1 18 2 18 19 3 10 -10 23
-17 28 -17 4 0 -2 7 -14 16 -18 13 -21 19 -11 30 6 8 16 14 21 14 7 0 6 -5 -1
-13 -25 -31 27 -37 54 -7 10 11 13 20 7 20 -7 0 -12 -6 -12 -12 0 -9 -4 -8
-10 2 -15 23 -12 28 15 25 14 -1 28 2 32 8 4 6 1 7 -8 2 -12 -8 -12 -6 0 8 9
12 21 15 35 11 12 -4 18 -3 14 1 -14 15 11 43 37 41 26 -3 32 3 15 20 -6 6 -5
15 1 24 9 13 10 12 5 -2 -3 -10 -1 -20 4 -23 10 -6 11 -5 15 35 1 13 8 26 15
28 7 3 0 12 -17 23 -15 10 -22 19 -14 19 11 0 11 3 1 15 -10 12 -10 15 1 15
11 0 11 2 -1 10 -10 7 -11 10 -2 10 8 0 11 9 8 25 -5 27 3 32 23 13 10 -9 12
-9 7 -1 -3 6 -3 14 2 17 4 3 13 -13 19 -35 8 -29 7 -39 -1 -36 -6 2 -10 13 -9
23 1 10 0 13 -3 6 -5 -10 -10 -9 -21 5 -13 17 -13 17 -4 -3 6 -12 7 -25 3 -29
-4 -5 -1 -5 7 0 10 6 12 4 6 -5 -6 -9 -4 -11 5 -5 9 5 11 4 6 -3 -5 -8 -1 -10
11 -5 10 3 15 3 11 -2 -4 -4 -3 -14 3 -22 6 -7 8 -13 4 -13 -4 0 -3 -6 2 -12
14 -19 10 -43 -7 -43 -8 0 -14 8 -14 18 1 10 -3 16 -9 14 -12 -4 -21 -48 -9
-46 25 4 62 -3 57 -10 -3 -5 0 -13 7 -17 16 -10 260 -6 270 4 5 5 10 27 13 51
2 23 9 67 14 99 6 31 13 73 15 92 3 19 12 80 21 135 9 55 18 114 20 130 2 17
10 75 19 130 8 55 18 118 21 140 4 22 8 51 11 65 21 120 34 88 -169 411 l-184
294 -445 1 -445 1 -186 -298z m926 -1184 c-7 -21 -12 -19 -10 4 0 11 5 18 9
15 4 -3 5 -11 1 -19z m-589 -148 c15 16 31 9 32 -14 1 -16 -2 -23 -11 -19 -7
2 -18 -1 -24 -7 -7 -7 -12 -7 -11 -2 5 23 -1 34 -20 40 -11 3 -20 11 -20 16 0
5 10 3 23 -6 13 -8 27 -12 31 -8z m135 -3 c-7 -8 -6 -14 3 -17 11 -3 -48 -2
-61 2 -14 4 23 27 43 27 18 0 22 -3 15 -12z m285 5 c-3 -5 0 -18 6 -29 9 -17
8 -20 -12 -20 -17 0 -19 3 -10 12 7 7 8 17 2 28 -6 12 -5 17 5 17 8 0 12 -4 9
-8z m-184 -14 c-7 -8 -17 -15 -23 -15 -6 0 -2 7 9 15 25 19 30 19 14 0z m70
-9 c0 -8 -7 -16 -15 -20 -13 -4 -14 -2 -5 14 13 23 20 26 20 6z m80 8 c0 -8
-19 -13 -24 -6 -3 5 1 9 9 9 8 0 15 -2 15 -3z m-440 -14 c0 -5 -5 -10 -11 -10
-5 0 -7 5 -4 10 3 6 8 10 11 10 2 0 4 -4 4 -10z"/>
<path d="M1303 549 c1 -12 13 -27 29 -35 18 -9 25 -19 22 -29 -4 -8 -2 -15 4
-15 8 0 9 28 2 38 -2 1 -3 6 -4 11 0 5 -13 19 -28 30 l-27 22 2 -22z"/>
<path d="M646 553 c-3 -3 -1 -12 4 -18 11 -14 3 -48 -10 -40 -4 3 -10 -2 -14
-10 -9 -26 18 -11 37 19 15 23 21 26 28 15 5 -8 9 -9 9 -3 0 14 -45 45 -54 37z"/>
<path d="M1302 426 c-8 -17 -17 -23 -36 -21 -14 2 -27 -1 -27 -6 -1 -5 -3 -13
-4 -19 -1 -5 -3 -15 -4 -22 -1 -9 -4 -9 -13 0 -7 7 -17 12 -22 12 -6 0 -4 -5
4 -10 8 -5 10 -10 4 -10 -13 0 -37 -50 -29 -58 3 -4 8 4 12 16 3 12 10 22 15
22 5 0 7 -4 3 -9 -3 -6 4 -15 15 -21 11 -6 18 -15 15 -21 -4 -5 -1 -9 4 -9 14
0 14 13 1 26 -8 8 -6 15 6 25 16 12 17 12 11 -3 -8 -22 11 -34 26 -18 9 9 8
14 -3 23 -18 14 -24 37 -11 37 6 0 18 -13 28 -30 9 -16 21 -30 25 -30 25 0 23
-2 27 38 0 7 6 10 11 7 6 -4 8 -11 5 -16 -3 -5 2 -6 11 -2 12 4 15 3 10 -5 -4
-7 -2 -12 3 -12 16 0 13 20 -3 26 -8 3 -12 12 -9 21 4 11 9 9 23 -11 l16 -26
34 33 33 32 -7 -30 c-5 -22 -4 -26 4 -15 16 24 12 36 -16 55 -21 14 -28 15
-35 4 -4 -7 -5 -17 -2 -22 3 -5 0 -7 -8 -5 -8 3 -13 11 -11 17 3 13 -36 50
-53 51 -5 0 -3 -5 5 -10 9 -6 10 -10 3 -10 -7 0 -17 8 -22 18 -8 13 -10 14
-10 2 0 -17 22 -50 33 -50 4 0 5 4 1 9 -3 5 -1 13 5 16 6 4 9 1 8 -7 -2 -7 3
-12 11 -10 12 3 12 0 1 -12 -14 -18 -25 -21 -14 -5 4 7 -1 7 -16 -1 -18 -10
-21 -10 -14 2 6 9 3 9 -11 -2 -15 -12 -17 -12 -10 -1 6 11 5 12 -6 5 -18 -11
-68 -14 -74 -4 -3 4 2 11 11 14 9 4 13 2 8 -5 -4 -8 -1 -8 12 -1 11 5 24 7 30
5 6 -2 14 3 17 12 4 8 2 15 -3 15 -5 0 -7 7 -4 15 10 24 -2 17 -14 -9z m143
-66 c-23 -26 -32 -25 -46 3 -12 22 -12 22 10 3 12 -11 22 -14 22 -8 1 7 3 17
4 22 1 6 3 13 4 17 0 4 6 2 13 -5 9 -9 7 -16 -7 -32z m-205 -32 c-24 -23 -25
-22 -27 2 -1 11 2 18 8 15 5 -4 12 1 15 10 5 13 9 14 15 4 5 -9 1 -20 -11 -31z
m70 28 c0 5 14 10 30 10 17 1 30 -3 30 -8 0 -5 -4 -7 -9 -3 -13 7 -30 -26 -23
-44 7 -22 -15 -4 -40 32 -15 21 -17 27 -5 18 9 -7 17 -9 17 -5z m-30 -46 c0
-5 -5 -10 -11 -10 -5 0 -7 5 -4 10 3 6 8 10 11 10 2 0 4 -4 4 -10z"/>
<path d="M1323 353 c-15 -5 -17 -23 -4 -23 5 0 11 7 15 15 3 8 4 15 3 14 -1 0
-8 -3 -14 -6z"/>
<path d="M686 401 c-3 -5 2 -15 12 -22 15 -12 16 -12 5 2 -7 9 -10 19 -6 22 3
4 4 7 0 7 -3 0 -8 -4 -11 -9z"/>
<path d="M730 402 c0 -4 5 -14 11 -22 9 -12 10 -12 5 4 -6 16 -4 17 9 6 12
-10 15 -10 15 2 0 7 -9 14 -20 15 -11 1 -20 -1 -20 -5z"/>
<path d="M862 398 c-15 -15 -15 -24 1 -26 21 -2 42 -7 54 -15 6 -4 14 -3 18 3
4 6 10 8 15 5 5 -3 11 -1 14 4 7 10 -31 26 -51 23 -6 -2 -14 2 -18 8 -8 13
-18 13 -33 -2z m32 -6 c3 -5 -1 -9 -9 -9 -8 0 -12 4 -9 9 3 4 7 8 9 8 2 0 6
-4 9 -8z m40 -23 c-3 -5 -10 -7 -15 -3 -5 3 -7 10 -3 15 3 5 10 7 15 3 5 -3 7
-10 3 -15z"/>
<path d="M992 397 c-8 -10 -6 -13 7 -13 11 0 17 6 14 13 -3 7 -6 13 -8 13 -1
0 -7 -6 -13 -13z"/>
<path d="M1077 403 c-8 -12 12 -22 31 -16 6 3 12 9 12 15 0 7 -5 6 -14 -1 -11
-9 -15 -9 -18 1 -3 8 -6 9 -11 1z"/>
<path d="M1164 402 c3 -5 0 -13 -6 -15 -9 -4 -10 -6 -1 -6 17 -1 25 16 12 25
-7 4 -9 3 -5 -4z"/>
<path d="M1490 401 c0 -19 22 -23 36 -7 8 9 9 11 2 6 -16 -13 -31 -13 -23 0 3
6 1 10 -4 10 -6 0 -11 -4 -11 -9z"/>
<path d="M472 381 c-11 -6 -10 -10 4 -15 9 -3 19 -4 22 -1 3 3 0 5 -7 5 -7 0
-9 5 -6 10 7 12 4 12 -13 1z"/>
<path d="M1534 378 c-3 -5 0 -7 8 -6 7 2 12 -4 10 -12 -2 -8 0 -11 4 -7 14 13
12 34 -3 34 -7 0 -16 -4 -19 -9z"/>
<path d="M1030 376 c0 -2 7 -7 16 -10 8 -3 12 -2 9 4 -6 10 -25 14 -25 6z"/>
<path d="M420 366 c0 -2 8 -10 18 -17 15 -13 16 -12 3 4 -13 16 -21 21 -21 13z"/>
<path d="M1490 331 c-6 -13 -5 -18 5 -18 7 0 11 6 8 13 -3 9 2 12 17 9 13 -2
20 -1 16 2 -14 14 -37 11 -46 -6z"/>
<path d="M390 336 c0 -2 8 -10 18 -17 15 -13 16 -12 3 4 -13 16 -21 21 -21 13z"/>
<path d="M461 316 c-9 -11 -9 -16 1 -22 7 -4 10 -4 6 1 -4 4 -3 14 3 22 6 7 9
13 6 13 -2 0 -10 -6 -16 -14z"/>
<path d="M527 319 c7 -7 15 -10 18 -7 3 3 -2 9 -12 12 -14 6 -15 5 -6 -5z"/>
<path d="M570 320 c0 -5 5 -10 10 -10 6 0 10 5 10 10 0 6 -4 10 -10 10 -5 0
-10 -4 -10 -10z"/>
<path d="M879 317 c6 -8 7 -18 3 -22 -4 -5 -1 -4 7 0 11 6 13 4 8 -8 -3 -10
-2 -17 3 -17 6 0 10 6 10 13 -1 15 -24 47 -35 47 -4 0 -2 -6 4 -13z"/>
<path d="M1435 319 c-11 -16 -1 -19 13 -3 7 8 8 14 3 14 -5 0 -13 -5 -16 -11z"/>
<path d="M590 300 c-12 -7 -10 -9 7 -7 12 0 19 5 17 9 -6 10 -6 10 -24 -2z"/>
<path d="M1351 287 c-13 -21 -12 -21 5 -5 10 10 16 20 13 22 -3 3 -11 -5 -18
-17z"/>
<path d="M751 284 c0 -11 3 -14 6 -6 3 7 2 16 -1 19 -3 4 -6 -2 -5 -13z"/>
<path d="M821 293 c-1 -17 16 -25 25 -12 4 7 3 9 -4 5 -5 -3 -13 0 -15 6 -4 9
-6 10 -6 1z"/>
<path d="M1000 286 c0 -2 7 -9 15 -16 13 -11 14 -10 9 4 -5 14 -24 23 -24 12z"/>
<path d="M1150 281 c0 -10 29 -36 34 -30 1 2 -6 12 -16 22 -10 9 -18 13 -18 8z"/>
<path d="M1186 282 c-2 -4 4 -8 14 -8 10 0 16 4 14 8 -3 4 -9 8 -14 8 -5 0
-11 -4 -14 -8z"/>
<path d="M1286 282 c-3 -5 1 -9 9 -9 8 0 15 4 15 9 0 4 -4 8 -9 8 -6 0 -12 -4
-15 -8z"/>
<path d="M1376 274 c-5 -13 -4 -14 7 -6 8 7 17 9 20 5 4 -3 7 -1 7 5 0 18 -27
14 -34 -4z"/>
<path d="M515 271 c-3 -5 -2 -12 3 -15 5 -3 9 1 9 9 0 17 -3 19 -12 6z"/>
<path d="M656 271 c-4 -5 3 -7 14 -4 23 6 26 13 6 13 -8 0 -17 -4 -20 -9z"/>
<path d="M720 260 c-9 -6 -10 -10 -3 -10 6 0 15 5 18 10 8 12 4 12 -15 0z"/>
<path d="M955 260 c-3 -6 1 -7 9 -4 18 7 21 14 7 14 -6 0 -13 -4 -16 -10z"/>
<path d="M1060 260 c-9 -6 -10 -10 -3 -10 6 0 15 5 18 10 8 12 4 12 -15 0z"/>
<path d="M1464 262 c4 -3 14 -7 22 -8 9 -1 13 0 10 4 -4 3 -14 7 -22 8 -9 1
-13 0 -10 -4z"/>
<path d="M1095 251 c-3 -5 -2 -12 3 -15 5 -3 9 1 9 9 0 17 -3 19 -12 6z"/>
<path d="M1213 245 c0 -8 4 -12 9 -9 5 3 6 10 3 15 -9 13 -12 11 -12 -6z"/>
<path d="M1295 251 c-3 -5 -2 -12 3 -15 5 -3 9 1 9 9 0 17 -3 19 -12 6z"/>
<path d="M815 221 c-3 -5 -2 -12 3 -15 5 -3 9 1 9 9 0 17 -3 19 -12 6z"/>
<path d="M1100 206 c0 -2 8 -10 18 -17 15 -13 16 -12 3 4 -13 16 -21 21 -21
13z"/>
</g>
</svg>
